Coordinates
version=1
nRows=8
nColumns=36
inDegrees=yes

Units are S.I. units (second, meters, Newtons, ...)
If the header above contains a line with 'inDegrees', this indicates whether rotational values are in degrees (yes) or radians (no).

endheader
time	pelvis_tilt	pelvis_list	pelvis_rotation	pelvis_tx	pelvis_ty	pelvis_tz	hip_flexion_r	hip_adduction_r	hip_rotation_r	knee_angle_r	knee_angle_r_beta	ankle_angle_r	subtalar_angle_r	mtp_angle_r	hip_flexion_l	hip_adduction_l	hip_rotation_l	knee_angle_l	knee_angle_l_beta	ankle_angle_l	subtalar_angle_l	mtp_angle_l	lumbar_extension	lumbar_bending	lumbar_rotation	arm_flex_r	arm_add_r	arm_rot_r	elbow_flex_r	pro_sup_r	arm_flex_l	arm_add_l	arm_rot_l	elbow_flex_l	pro_sup_l
      4.31250000	     -1.59727227	      1.36205090	     -5.19936260	      0.36141624	      0.96794292	     -0.06204911	      9.89520192	     -4.46748518	     -0.87360006	     13.05343124	      0.22782535	      9.08591613	     -8.59933529	     -7.49999987	      7.13735960	     -4.82834992	      3.00001335	     14.37617232	      0.25091154	      9.15456971	     -7.89747318	     -7.49999987	    -13.28466093	     -0.58900989	     -9.98530194	    -10.30941219	     -5.13585164	    -46.38227947	     22.11847151	     70.42560595	    184.00671237	   -157.40847680	    154.38468626	     30.25664319	     68.84808629
      4.31666670	     -1.43880141	      1.27386087	     -5.27851434	      0.36155588	      0.97035772	     -0.06108481	      9.30757575	     -4.35814081	     -0.62090907	     12.43240452	      0.21698639	      9.13464388	     -8.37048689	     -7.49999987	      6.58861027	     -5.00654350	      2.75951829	     13.69063347	      0.23894663	      9.09531865	     -7.15030047	     -7.49999987	    -13.30251614	     -0.48880331	     -9.99375508	    -10.23371277	     -4.92332565	    -45.82041679	     21.46955665	     70.87295758	    184.61295487	   -157.37490031	    155.33913833	     30.50818171	     68.82512816
      4.32083330	     -1.32468333	      1.28014257	     -5.34059784	      0.36234429	      0.96779847	     -0.05954409	      8.82203016	     -4.24020125	     -0.29422256	     11.81589082	      0.20622620	      9.29918084	     -8.25595772	     -7.49999987	      6.08054983	     -5.11034938	      2.43763951	     13.11748214	      0.22894325	      8.95260347	     -6.80961209	     -7.49999987	    -13.27117656	     -0.53763753	     -9.97598060	    -10.07370554	     -4.71527329	    -45.28107930	     20.61041443	     71.21406106	    185.14834201	   -157.33405990	    156.26531465	     31.13712589	     69.03339285
      4.32500000	     -1.23788019	      1.23642477	     -5.58274911	      0.36223938	      0.96350956	     -0.05935842	      8.57119552	     -4.12655239	      0.06977109	     11.62716941	      0.20293239	      9.68730769	     -8.33853792	     -7.49999987	      5.65542277	     -5.25419432	      1.87805274	     12.62646386	      0.22037337	      9.08209441	     -6.38341200	     -7.49999987	    -13.16316764	     -0.55757605	    -10.19296351	     -9.67169032	     -4.72621400	    -44.45599391	     19.57737577	     71.37887626	    185.29410648	   -157.69304763	    154.63846697	     32.35402731	     69.25822279
      4.32916670	     -1.23420307	      1.21994507	     -5.69277202	      0.36226813	      0.95919381	     -0.05911001	      8.54463268	     -4.04614032	      0.51048203	     11.62380591	      0.20287368	     10.20693802	     -8.19139371	     -7.49999987	      5.44477491	     -5.34380230	      1.52022977	     12.26174035	      0.21400774	      9.38164072	     -6.05754731	     -7.49999987	    -12.94018554	     -0.48233328	    -10.86616461	     -9.36335395	     -4.55870550	    -44.00250896	     19.15234102	     71.28045593	    185.18284366	   -157.69787594	    154.01978181	     33.11596536	     69.26589644
      4.33333330	     -1.73551413	      1.34645759	     -5.62490843	      0.35953703	      0.95961739	     -0.06132039	      9.17111179	     -4.19882147	      0.99582800	     11.66285704	      0.20355526	     10.38480727	     -8.80768366	     -7.49999987	      5.96329705	     -5.21512147	      1.51229198	     12.07130472	      0.21068401	      9.17249449	     -6.56365781	     -7.49999987	    -12.25728173	     -0.34120430	     -9.90323377	    -10.07596157	     -4.22102073	    -43.79725259	     18.91643363	     71.40742540	    187.13791676	   -157.56812791	    158.06056491	     32.39908739	     69.65685626
      4.33750000	     -1.97093508	      1.42674537	     -5.56150480	      0.36094522	      0.96272705	     -0.06036677	      9.33949892	     -4.25319145	      1.29472525	     11.56174432	      0.20179051	     10.42704046	     -8.85731191	     -7.49999987	      6.14374501	     -5.15994372	      1.39502213	     11.83547533	      0.20656801	      9.07029797	     -6.28470978	     -7.49999987	    -11.91591869	     -0.25194833	     -9.88309339	    -10.12498098	     -3.90144574	    -44.06588281	     18.72586904	     72.43575891	    187.96888477	   -157.66865785	    159.52433391	     32.69273041	     70.50038272
      4.34166670	     -2.19359296	      1.49430370	     -5.50170209	      0.36128811	      0.96340311	     -0.05747637	      9.38333790	     -4.22872815	      1.37563857	     11.31148646	      0.19742268	     10.24440934	     -9.14155058	     -7.49999987	      6.24497581	     -5.18754257	      1.26891166	     11.51290613	      0.20093812	      8.71357664	     -6.13824833	     -7.49999987	    -11.58779444	     -0.23087717	    -10.07007387	     -9.87491234	     -3.61158214	    -43.94431367	     18.52527178	     72.61416873	    188.53470092	   -157.95189789	    159.55386996	     33.24460640	     70.59582025
